<svg width="220" height="220" viewBox="0 0 220 220" fill="none" xmlns="http://www.w3.org/2000/svg">
  <path d="M110 18C122 38 141 57 161 74C175 87 183 101 183 118C183 142 164 161 136 166L131 151C150 147 164 134 164 118C164 106 159 97 147 88C131 75 116 60 104 42C92 60 77 75 61 88C49 97 44 106 44 118C44 134 58 147 77 151L72 166C44 161 25 142 25 118C25 101 33 87 47 74C67 57 86 38 98 18L104 6L110 18Z" fill="#0E446A"/>
  <path d="M73 60C90 49 111 46 130 49C135 50 138 53 138 57C138 62 134 64 129 64C113 62 98 64 85 71C74 76 66 84 64 93C62 99 53 101 48 95C46 92 46 88 47 84C51 73 60 66 73 60Z" fill="white"/>
  <path d="M80 86H128C145 86 157 94 157 106C157 118 145 126 128 126H115L110 140H136C152 140 163 147 163 159C163 173 149 181 129 181H78C72 181 69 178 69 173V160C69 154 72 151 78 151H121C128 151 132 149 132 146C132 143 128 141 121 141H91C76 141 66 134 66 123C66 111 77 102 95 102H106C113 102 117 100 117 97C117 93 113 91 106 91H80C75 91 72 88 72 84C72 80 75 77 80 77V86Z" fill="#0E446A"/>
  <path d="M134 83H154L126 181H106L134 83Z" fill="#C58D2A"/>
</svg>
